<?xml version="1.0" encoding="UTF-8"?>
<svg xmlns="http://www.w3.org/2000/svg" xmlns:xlink="http://www.w3.org/1999/xlink" width="48pt" height="48pt" viewBox="0 0 64 64" version="1.1">
<g id="surface5692162">
<path style=" stroke:none;fill-rule:nonzero;fill:rgb(17.254902%,26.666667%,34.509804%);fill-opacity:1;" d="M 24 12 L 24 16 L 6 16 C 5.28125 15.984375 4.609375 16.375 4.25 16.984375 C 3.875 17.609375 3.875 18.390625 4.25 19.015625 C 4.609375 19.625 5.28125 20.015625 6 20 L 20.3125 20 C 13 23.71875 8 31.28125 8 40 L 4 40 L 4 52 L 16 52 L 16 40 L 12 40 C 12 32.0625 17 25.3125 24 22.6875 L 24 24 L 36 24 L 36 22.71875 C 43 25.34375 48 32.0625 48 40 L 44 40 L 44 52 L 56 52 L 56 40 L 52 40 C 52 31.28125 47 23.71875 39.71875 20 L 54 20 C 54.71875 20.015625 55.390625 19.625 55.75 19.015625 C 56.125 18.390625 56.125 17.609375 55.75 16.984375 C 55.390625 16.375 54.71875 15.984375 54 16 L 36 16 L 36 12 Z M 28 16 L 32 16 L 32 17.6875 C 31.96875 17.890625 31.96875 18.109375 32 18.328125 L 32 20 L 28 20 L 28 18.3125 C 28.03125 18.109375 28.03125 17.890625 28 17.671875 Z M 8 44 L 12 44 L 12 48 L 8 48 Z M 48 44 L 52 44 L 52 48 L 48 48 Z M 48 44 "/>
</g>
</svg>
