<?xml version="1.0" encoding="UTF-8"?>
<svg xmlns="http://www.w3.org/2000/svg" xmlns:xlink="http://www.w3.org/1999/xlink" width="32pt" height="32pt" viewBox="0 0 32 32" version="1.1">
<g id="surface6587613">
<path style=" stroke:none;fill-rule:nonzero;fill:rgb(17.254902%,26.666667%,34.509804%);fill-opacity:1;" d="M 16 4 C 12.699219 4 10 6.699219 10 10 C 10 10.992188 10.375 12.007812 10.867188 13.128906 C 11.28125 14.074219 11.804688 15.054688 12.339844 16 L 7 16 C 6.589844 16 6.222656 16.25 6.070312 16.628906 L 2.070312 26.628906 C 1.945312 26.9375 1.984375 27.285156 2.171875 27.5625 C 2.359375 27.835938 2.667969 28 3 28 L 29 28 C 29.332031 28 29.640625 27.835938 29.828125 27.5625 C 30.015625 27.285156 30.054688 26.9375 29.929688 26.628906 L 25.929688 16.628906 C 25.777344 16.25 25.410156 16 25 16 L 19.660156 16 C 20.195312 15.054688 20.71875 14.074219 21.132812 13.128906 C 21.625 12.007812 22 10.992188 22 10 C 22 6.699219 19.300781 4 16 4 Z M 16 6 C 18.21875 6 20 7.78125 20 10 C 20 10.386719 19.75 11.3125 19.304688 12.324219 C 18.859375 13.335938 18.25 14.476562 17.636719 15.535156 C 16.820312 16.941406 16.457031 17.441406 16 18.128906 C 15.542969 17.441406 15.179688 16.941406 14.363281 15.535156 C 13.75 14.476562 13.140625 13.335938 12.695312 12.324219 C 12.25 11.3125 12 10.386719 12 10 C 12 7.78125 13.78125 6 16 6 Z M 16 8 C 14.894531 8 14 8.894531 14 10 C 14 11.105469 14.894531 12 16 12 C 17.105469 12 18 11.105469 18 10 C 18 8.894531 17.105469 8 16 8 Z M 7.675781 18 L 13.539062 18 C 14.417969 19.417969 15.175781 20.566406 15.175781 20.566406 L 16 21.757812 L 16.824219 20.566406 C 16.824219 20.566406 17.582031 19.417969 18.460938 18 L 24.324219 18 L 27.523438 26 L 4.476562 26 Z M 7.675781 18 "/>
</g>
</svg>
