<?xml version="1.0" encoding="UTF-8"?>
<svg xmlns="http://www.w3.org/2000/svg" xmlns:xlink="http://www.w3.org/1999/xlink" width="32pt" height="32pt" viewBox="0 0 32 32" version="1.1">
<g id="surface6449624">
<path style=" stroke:none;fill-rule:nonzero;fill:rgb(17.254902%,26.666667%,34.509804%);fill-opacity:1;" d="M 15 2 C 7.828125 2 2 7.828125 2 15 C 2 22.171875 7.828125 28 15 28 C 17.4375 28 19.726562 27.328125 21.679688 26.15625 L 20.648438 24.4375 C 19 25.429688 17.070312 26 15 26 C 8.914062 26 4 21.085938 4 15 C 4 8.914062 8.914062 4 15 4 C 21.085938 4 26 8.914062 26 15 L 26 17.203125 C 26 18.75 24.75 20 23.210938 20 L 22.796875 20 C 21.257812 20 20 18.75 20 17.203125 L 20 12.796875 C 20 10.164062 17.835938 8 15.203125 8 L 14.796875 8 C 12.164062 8 10 10.164062 10 12.796875 L 10 17.203125 C 10 19.835938 12.164062 22 14.796875 22 L 15.203125 22 C 16.75 22 18.125 21.242188 19 20.09375 C 19.882812 21.242188 21.25 22 22.796875 22 L 23.210938 22 C 25.835938 22 28 19.84375 28 17.203125 L 28 15 C 28 7.828125 22.171875 2 15 2 Z M 14.796875 10 L 15.203125 10 C 16.742188 10 18 11.25 18 12.796875 L 18 17.203125 C 18 18.75 16.742188 20 15.203125 20 L 14.796875 20 C 13.25 20 12 18.75 12 17.203125 L 12 12.796875 C 12 11.25 13.25 10 14.796875 10 Z M 14.796875 10 "/>
</g>
</svg>
