<?xml version="1.0" encoding="UTF-8"?>
<svg xmlns="http://www.w3.org/2000/svg" xmlns:xlink="http://www.w3.org/1999/xlink" width="32pt" height="32pt" viewBox="0 0 32 32" version="1.1">
<g id="surface6588519">
<path style=" stroke:none;fill-rule:nonzero;fill:rgb(17.254902%,26.666667%,34.509804%);fill-opacity:1;" d="M 6.742188 2.085938 L 3.59375 5.234375 C 1.867188 6.960938 1.492188 9.648438 2.726562 11.757812 C 4.101562 14.117188 5.226562 15.859375 9.9375 20.5625 C 14.640625 25.273438 15.921875 25.914062 18.242188 27.273438 C 20.359375 28.507812 23.039062 28.132812 24.757812 26.40625 L 27.914062 23.257812 L 21.820312 17.171875 L 19.34375 19.648438 C 19.046875 19.515625 18.601562 19.28125 18.085938 18.953125 C 17.023438 18.273438 15.664062 17.234375 14.46875 16.03125 C 13.265625 14.835938 12.09375 13.34375 11.28125 12.140625 C 10.882812 11.546875 10.5625 11.007812 10.390625 10.65625 C 10.382812 10.640625 10.382812 10.640625 10.375 10.625 L 12.828125 8.171875 Z M 6.742188 4.914062 L 10 8.171875 L 8.570312 9.609375 C 8.273438 9.90625 8.242188 10.234375 8.25 10.421875 C 8.25 10.601562 8.28125 10.726562 8.3125 10.84375 C 8.382812 11.085938 8.476562 11.296875 8.59375 11.546875 C 8.835938 12.03125 9.1875 12.609375 9.625 13.265625 C 10.5 14.5625 11.734375 16.132812 13.046875 17.453125 C 14.367188 18.765625 15.820312 19.875 17.015625 20.632812 C 17.609375 21.015625 18.132812 21.304688 18.578125 21.5 C 18.804688 21.601562 19.007812 21.679688 19.25 21.726562 C 19.367188 21.75 19.5 21.765625 19.679688 21.75 C 19.859375 21.742188 20.140625 21.679688 20.390625 21.429688 L 21.820312 20 L 25.085938 23.257812 L 23.34375 25 C 22.257812 26.085938 20.578125 26.320312 19.25 25.546875 C 16.890625 24.164062 15.992188 23.796875 11.34375 19.15625 C 6.703125 14.507812 5.8125 13.078125 4.453125 10.75 C 3.679688 9.421875 3.914062 7.742188 5 6.65625 Z M 6.742188 4.914062 "/>
</g>
</svg>
