<?xml version="1.0" encoding="UTF-8"?>
<svg xmlns="http://www.w3.org/2000/svg" xmlns:xlink="http://www.w3.org/1999/xlink" width="32pt" height="32pt" viewBox="0 0 32 32" version="1.1">
<g id="surface6587995">
<path style=" stroke:none;fill-rule:nonzero;fill:rgb(17.254902%,26.666667%,34.509804%);fill-opacity:1;" d="M 15 4 C 19.054688 4 21.539062 7.039062 21.539062 10.773438 C 21.539062 10.820312 22.84375 11.804688 22.359375 14.15625 C 23.992188 15.210938 24.046875 18.5625 24 19.5 C 23.984375 19.773438 24 20.75 23.5 21 C 23.40625 21.046875 23.3125 21.0625 23.21875 21.0625 C 22.835938 21.0625 22.5 20.703125 22.34375 20.632812 C 22.3125 21.203125 22.117188 21.8125 21.773438 22.390625 C 22.070312 22.757812 22.359375 23.273438 22.359375 23.882812 C 22.359375 25.375 21.265625 26 19.179688 26 C 17.492188 26 15.679688 25.046875 15.25 24 L 14.75 24 C 14.320312 25.046875 12.507812 26 10.820312 26 C 8.734375 26 7.640625 25.375 7.640625 23.882812 C 7.640625 23.257812 7.945312 22.734375 8.242188 22.367188 C 7.898438 21.796875 7.710938 21.1875 7.6875 20.617188 C 7.515625 20.695312 7.171875 21.0625 6.773438 21.0625 C 6.6875 21.0625 6.59375 21.039062 6.5 20.992188 C 6 20.75 6.015625 19.773438 6 19.5 C 5.953125 18.5625 6.007812 15.210938 7.640625 14.15625 C 7.15625 11.804688 8.460938 10.820312 8.460938 10.773438 C 8.460938 7.039062 10.945312 4 15 4 M 15 2 C 10.296875 2 6.820312 5.335938 6.484375 10.03125 C 5.8125 10.984375 5.492188 12.140625 5.539062 13.40625 C 3.898438 15.460938 3.960938 18.84375 4 19.601562 C 4.023438 20.234375 4.078125 22.023438 5.609375 22.789062 C 5.664062 22.8125 5.71875 22.84375 5.773438 22.867188 C 5.6875 23.203125 5.640625 23.539062 5.640625 23.882812 C 5.640625 25.125 6.148438 28 10.820312 28 C 12.195312 28 13.796875 27.523438 15 26.664062 C 16.203125 27.523438 17.804688 28 19.179688 28 C 23.851562 28 24.359375 25.125 24.359375 23.882812 C 24.359375 23.539062 24.3125 23.203125 24.226562 22.867188 C 24.28125 22.84375 24.335938 22.8125 24.390625 22.789062 C 25.921875 22.023438 25.976562 20.234375 25.992188 19.640625 C 26.03125 18.851562 26.101562 15.460938 24.460938 13.398438 C 24.507812 12.132812 24.1875 10.976562 23.515625 10.023438 C 23.179688 5.328125 19.703125 2 15 2 Z M 15 2 "/>
</g>
</svg>
