<?xml version="1.0" encoding="UTF-8"?>
<svg xmlns="http://www.w3.org/2000/svg" xmlns:xlink="http://www.w3.org/1999/xlink" width="32pt" height="32pt" viewBox="0 0 32 32" version="1.1">
<g id="surface6588950">
<path style=" stroke:none;fill-rule:nonzero;fill:rgb(17.254902%,26.666667%,34.509804%);fill-opacity:1;" d="M 14 2 C 7.484375 2 2 6.367188 2 12 C 2 13.929688 2.71875 15.695312 3.828125 17.203125 L 3.148438 22.492188 L 7.984375 20.492188 C 9.296875 21.132812 10.71875 21.632812 12.25 21.859375 C 13.179688 25.445312 16.789062 28.054688 21 28.054688 C 22.773438 28.054688 24.320312 27.414062 25.71875 26.625 L 29.125 28.632812 L 28.609375 24 C 29.382812 22.820312 30 21.523438 30 20.054688 C 30 17.210938 28.34375 14.765625 25.882812 13.34375 C 25.953125 12.90625 26 12.460938 26 12 C 26 6.367188 20.515625 2 14 2 Z M 14 4 C 19.632812 4 24 7.6875 24 12 C 24 12.179688 23.96875 12.359375 23.953125 12.53125 C 23.023438 12.242188 22.03125 12.054688 21 12.054688 C 16.195312 12.054688 12.171875 15.453125 12.03125 19.820312 C 10.679688 19.601562 9.429688 19.1875 8.34375 18.59375 L 7.921875 18.359375 L 5.578125 19.328125 L 5.914062 16.71875 L 5.640625 16.382812 C 4.59375 15.101562 4 13.609375 4 12 C 4 7.6875 8.367188 4 14 4 Z M 11 8 C 10.445312 8 10 8.445312 10 9 C 10 9.554688 10.445312 10 11 10 C 11.554688 10 12 9.554688 12 9 C 12 8.445312 11.554688 8 11 8 Z M 17 8 C 16.445312 8 16 8.445312 16 9 C 16 9.554688 16.445312 10 17 10 C 17.554688 10 18 9.554688 18 9 C 18 8.445312 17.554688 8 17 8 Z M 21 14.054688 C 24.945312 14.054688 28 16.804688 28 20.054688 C 28 21.289062 27.570312 22.421875 26.8125 23.382812 L 26.5625 23.710938 L 26.609375 24.117188 L 26.695312 24.875 L 25.875 24.390625 L 25.34375 24.75 C 24.15625 25.554688 22.648438 26.054688 21 26.054688 C 17.164062 26.054688 14.195312 23.453125 14.03125 20.320312 L 14.03125 20 C 13.921875 20 13.960938 20 14.007812 20 C 14.039062 16.773438 17.078125 14.054688 21 14.054688 Z M 19 18 C 18.445312 18 18 18.445312 18 19 C 18 19.554688 18.445312 20 19 20 C 19.554688 20 20 19.554688 20 19 C 20 18.445312 19.554688 18 19 18 Z M 23 18 C 22.445312 18 22 18.445312 22 19 C 22 19.554688 22.445312 20 23 20 C 23.554688 20 24 19.554688 24 19 C 24 18.445312 23.554688 18 23 18 Z M 23 18 "/>
</g>
</svg>
