<?xml version="1.0" encoding="UTF-8"?>
<svg xmlns="http://www.w3.org/2000/svg" xmlns:xlink="http://www.w3.org/1999/xlink" width="32pt" height="32pt" viewBox="0 0 32 32" version="1.1">
<g id="surface6586311">
<path style=" stroke:none;fill-rule:nonzero;fill:rgb(17.254902%,26.666667%,34.509804%);fill-opacity:1;" d="M 23.25 2 C 22.367188 2 21.507812 2.132812 20.703125 2.390625 C 20.171875 2.546875 19.882812 3.109375 20.046875 3.640625 C 20.210938 4.164062 20.765625 4.460938 21.296875 4.296875 C 21.914062 4.101562 22.570312 4 23.25 4 C 26.96875 4 30 7.109375 30 11 C 30 11.609375 29.921875 12.203125 29.78125 12.757812 C 29.648438 13.296875 29.976562 13.835938 30.515625 13.96875 C 31.046875 14.101562 31.59375 13.78125 31.726562 13.242188 C 31.90625 12.523438 32 11.773438 32 11 C 32 6.054688 28.085938 2 23.25 2 Z M 13.5625 6 C 11.304688 5.960938 7.890625 7.726562 4.859375 10.710938 C 1.835938 13.695312 0.078125 16.859375 0.078125 19.59375 C 0.0703125 25.492188 6.882812 28 13.539062 28 C 22.265625 28 28.070312 23.007812 28.070312 19.039062 C 28.070312 16.640625 26.023438 15.28125 24.1875 14.71875 C 23.734375 14.585938 23.421875 14.492188 23.65625 13.90625 C 24.171875 12.640625 24.226562 11.546875 23.664062 10.765625 C 22.625 9.296875 19.773438 9.375 16.507812 10.71875 C 16.507812 10.71875 15.476562 11.164062 15.742188 10.359375 C 16.242188 8.773438 16.171875 7.4375 15.390625 6.664062 C 14.945312 6.226562 14.320312 6.015625 13.5625 6 Z M 24 6 C 23.53125 6 23.078125 6.078125 22.65625 6.234375 C 22.3125 6.34375 22.054688 6.632812 21.984375 6.992188 C 21.914062 7.351562 22.046875 7.71875 22.328125 7.953125 C 22.609375 8.1875 22.992188 8.25 23.335938 8.109375 C 23.539062 8.039062 23.757812 8 24 8 C 25.117188 8 26 8.882812 26 10 C 26 10.234375 25.960938 10.460938 25.882812 10.671875 C 25.765625 11.007812 25.835938 11.382812 26.070312 11.65625 C 26.304688 11.929688 26.664062 12.054688 27.015625 11.984375 C 27.367188 11.921875 27.65625 11.671875 27.773438 11.328125 C 27.921875 10.914062 28 10.460938 28 10 C 28 7.804688 26.195312 6 24 6 Z M 12.984375 13.921875 C 17.585938 13.992188 21.757812 15.851562 22.0625 18.859375 C 22.40625 22.296875 19.132812 26 11.25 26 L 11 26 C 7.953125 26 4.359375 24.523438 4.015625 21.085938 C 3.664062 17.648438 5.6875 14.515625 11 14 C 11.664062 13.9375 12.328125 13.90625 12.984375 13.921875 Z M 11.859375 16.015625 C 9.640625 15.859375 7.375 16.953125 6.4375 18.703125 C 5.335938 20.75 6.398438 23.023438 8.90625 23.765625 C 11.507812 24.53125 14.570312 23.359375 15.640625 21.148438 C 16.6875 18.992188 15.375 16.765625 12.804688 16.15625 C 12.492188 16.078125 12.179688 16.039062 11.859375 16.015625 Z M 12.3125 18.703125 C 12.632812 18.8125 12.742188 19.140625 12.570312 19.421875 C 12.390625 19.710938 11.984375 19.851562 11.671875 19.734375 C 11.359375 19.617188 11.257812 19.296875 11.4375 19.015625 C 11.617188 18.734375 12 18.59375 12.3125 18.703125 Z M 9.6875 19.34375 C 9.90625 19.351562 10.125 19.390625 10.328125 19.46875 C 11.140625 19.78125 11.40625 20.640625 10.90625 21.382812 C 10.398438 22.117188 9.320312 22.445312 8.507812 22.101562 C 7.703125 21.773438 7.46875 20.90625 7.96875 20.1875 C 8.34375 19.65625 9.03125 19.34375 9.6875 19.34375 Z M 9.6875 19.34375 "/>
</g>
</svg>
