<svg xmlns="http://www.w3.org/2000/svg" width="201" height="75" viewBox="0 0 201 75"><g fill="none" fill-rule="nonzero"><path fill="#FBC02D" d="M125.998 44.288c4.647-16.475-2.779-32.987-16.585-36.881C95.606 3.513 80.647 13.711 76 30.185c-4.647 16.474 2.778 32.986 16.585 36.88 13.807 3.895 28.766-6.303 33.413-22.777Z"/><path fill="#F4511E" d="M87.828 10.235c-4.92 3.656-8.775 9.473-10.77 16.785-3.855 14.292.932 29.581 10.77 37.06l11.434 4.487c11.167.997 21.936-7.479 25.659-21.438 1.462-5.318 1.728-10.969.798-16.12-7.977-1.164-17.15-4.654-20.209-9.806-3.59-5.65-11.035-9.472-17.682-10.968Z"/><path fill="#FFA000" d="M77.059 27.186c-4.387 16.619 2.659 34.4 15.954 40.051 13.295 5.485 27.52-3.323 32.04-19.942.931-3.656 1.463-7.479 1.33-11.135-5.45-2.991-11.965-4.653-16.884-2.991-7.313 2.327-23.267-7.479-28.718-14.957-1.595 2.659-2.791 5.65-3.722 8.974Z"/><path fill="#FBC02D" d="M75.995 33.335c-1.462 14.624 5.451 28.917 17.018 33.736 10.902 4.653 22.601-.665 28.85-11.965-8.509-.831-19.145-4.488-22.602-9.972-4.786-7.478-15.953-11.633-23.266-11.799Z"/><path fill="#E64A19" d="M93.013 67.07c9.173 3.823 18.746.832 25.393-6.813-5.185-2.493-11.035-3.822-15.555-2.327-6.248 1.995-19.145-5.151-26.058-11.799 2.26 9.473 8.11 17.616 16.22 20.94Z"/><path fill="#D84315" d="M60.658 50.76c-.023-3.4 1.367-4.81 4.767-4.833l2-.014c3.2-.022 6.288-1.843 6.26-5.743-.026-3.9-3.139-5.678-6.339-5.656l-2 .013c-3.4.024-4.81-1.366-4.833-4.766l-.147-21.4c-.025-3.5-1.948-6.886-6.248-6.857-4.4.03-6.276 3.444-6.252 6.944l.148 21.4c.023 3.399-1.367 4.809-4.767 4.832l-25.3.175c-3.4.023-4.809-1.367-4.832-4.767l-.148-21.4c-.024-3.5-1.948-6.886-6.348-6.856-4.3.03-6.176 3.443-6.152 6.943l.16 23.1c.07 10.2 4.299 14.37 14.499 14.3l28.2-.095c3.4-.024 4.81 1.367 4.833 4.767l.114 16.6c.025 3.5 1.948 6.886 6.348 6.855 4.3-.03 6.176-3.442 6.152-6.942l-.115-16.6Zm48.644 21.765c17-.118 23.851-7.165 23.734-24.065l-.153-22.2c-.117-16.899-7.065-23.851-24.064-23.734l-17.5.121c-17 .118-23.851 7.165-23.734 24.065l.153 22.2c.117 16.899 7.065 23.851 24.064 23.734l17.5-.121ZM92.224 61.242c-8.4.058-11.924-3.417-11.982-11.717l-.163-23.6c-.057-8.3 3.419-11.823 11.819-11.881l16.5-.114c8.4-.058 11.923 3.417 11.98 11.717l.163 23.6c.058 8.3-3.418 11.823-11.818 11.881l-16.5.114Zm95.677-11.36c-.023-3.4 1.367-4.81 4.767-4.834l2-.014c3.2-.022 6.288-1.843 6.26-5.743-.026-3.9-3.139-5.678-6.339-5.656l-2 .014c-3.4.023-4.81-1.367-4.833-4.767l-.147-21.4c-.025-3.5-1.948-6.886-6.248-6.857-4.4.03-6.276 3.444-6.252 6.944l.148 21.4c.023 3.4-1.367 4.809-4.767 4.832l-25.3.175c-3.4.023-4.809-1.367-4.832-4.767l-.148-21.4c-.024-3.5-1.948-6.886-6.348-6.856-4.3.03-6.176 3.443-6.152 6.943l.16 23.1c.07 10.2 4.299 14.37 14.499 14.3l28.2-.095c3.4-.024 4.81 1.367 4.833 4.767l.114 16.6c.025 3.5 1.948 6.886 6.348 6.856 4.3-.03 6.176-3.443 6.152-6.943l-.115-16.6Z"/></g></svg>