<svg xmlns="http://www.w3.org/2000/svg" xmlns:xlink="http://www.w3.org/1999/xlink" width="98" height="65" viewBox="0 0 98 65"><defs><linearGradient id="b" x1="-21.327%" x2="77.2%" y1="-6.733%" y2="-99.356%"><stop offset="0%" stop-color="#FFF"/><stop offset="12.01%" stop-color="#C6C6C6"/><stop offset="24.46%" stop-color="#929292"/><stop offset="37.13%" stop-color="#656565"/><stop offset="49.78%" stop-color="#414141"/><stop offset="62.4%" stop-color="#242424"/><stop offset="74.98%" stop-color="#101010"/><stop offset="87.52%" stop-color="#040404"/><stop offset="100%" stop-color="#FFF"/></linearGradient><path id="a" d="M0 0h139v23H0z"/></defs><g fill="none" fill-rule="evenodd" transform="rotate(-30 96.832 37.946)"><mask id="c" fill="#fff"><use xlink:href="#a"/></mask><path fill="url(#b)" fill-rule="nonzero" d="m68.589 14.512 55.16-22.164-77.667 33.879L111.861.739l-78.935 33.72 67.998-26.121L13.43 45.066l-4.121-9.182L93.633-7.018 29.756 27.177l75.131-37.52-56.111 29.287 71.327-34.353L70.967 9.604 141.184-20z" mask="url(#c)" opacity=".15" transform="rotate(25 75.246 12.533)"/><path fill="#CFD8DC" fill-rule="nonzero" d="M6.702 16.148a5.07 5.07 0 0 0 5.071-5.067 5.07 5.07 0 0 0-5.07-5.068 5.07 5.07 0 0 0-5.072 5.068 5.07 5.07 0 0 0 5.071 5.067Z" mask="url(#c)"/></g></svg>