<svg xmlns="http://www.w3.org/2000/svg" xmlns:xlink="http://www.w3.org/1999/xlink" viewBox="0 0 130 130" width="120" height="120"><defs><linearGradient id="e" x1="115.65" y1="96.98" x2="18.81" y2="94.84" gradientUnits="userSpaceOnUse"><stop offset="0" stop-color="#7e73ff"/><stop offset=".15" stop-color="#7470fd"/><stop offset=".39" stop-color="#5966f7"/><stop offset=".71" stop-color="#2d57ed"/><stop offset="1" stop-color="#0048e3"/></linearGradient><linearGradient id="a" x1="30.79" y1="103.45" x2="99.83" y2="103.45" gradientUnits="userSpaceOnUse"><stop offset="0" stop-color="#fff"/><stop offset="1" stop-color="#fff"/></linearGradient><linearGradient id="b" x1="95.38" y1="93.88" x2="38.53" y2="92.63" gradientUnits="userSpaceOnUse"><stop offset="0" stop-color="#5773ff"/><stop offset=".15" stop-color="#536cf5"/><stop offset=".41" stop-color="#4959da"/><stop offset=".74" stop-color="#383aae"/><stop offset="1" stop-color="#291f87"/></linearGradient><linearGradient id="c" x1="65.75" y1="95.56" x2="99.83" y2="95.56" gradientUnits="userSpaceOnUse"><stop offset="0" stop-color="#5773ff"/><stop offset=".32" stop-color="#5669f9"/><stop offset=".88" stop-color="#534ee7"/><stop offset="1" stop-color="#5247e3"/></linearGradient><linearGradient id="d" x1="30.75" y1="95.56" x2="65.75" y2="95.56" gradientUnits="userSpaceOnUse"><stop offset="0" stop-color="#0d4fdc"/><stop offset=".62" stop-color="#1755e0"/><stop offset="1" stop-color="#205be3"/></linearGradient><linearGradient id="f" x1="30.79" y1="88.39" x2="99.83" y2="88.39" xlink:href="#a"/><linearGradient id="g" x1="95.38" y1="78.82" x2="38.53" y2="77.57" xlink:href="#b"/><linearGradient id="h" x1="65.75" y1="80.5" x2="99.83" y2="80.5" xlink:href="#c"/><linearGradient id="i" x1="95.5" y1="64.01" x2="38.45" y2="62.76" gradientUnits="userSpaceOnUse"><stop offset="0" stop-color="#5773ff"/><stop offset=".27" stop-color="#4d7afa"/><stop offset=".74" stop-color="#328cec"/><stop offset="1" stop-color="#2098e3"/></linearGradient><linearGradient id="j" x1="30.75" y1="80.5" x2="65.75" y2="80.5" xlink:href="#d"/><linearGradient id="k" x1="30.79" y1="73.61" x2="99.83" y2="73.61" xlink:href="#a"/><linearGradient id="l" x1="95.38" y1="64.05" x2="38.53" y2="62.79" xlink:href="#b"/><linearGradient id="m" x1="65.75" y1="65.72" x2="99.83" y2="65.72" xlink:href="#c"/><linearGradient id="n" x1="95.5" y1="49.24" x2="38.45" y2="47.98" xlink:href="#e"/><linearGradient id="o" x1="30.75" y1="65.72" x2="65.75" y2="65.72" xlink:href="#d"/><linearGradient id="p" x1="78.14" y1="47.15" x2="54.2" y2="46.62" gradientUnits="userSpaceOnUse"><stop offset="0" stop-color="#fff"/><stop offset=".09" stop-color="#f5fcff"/><stop offset=".23" stop-color="#daf5ff"/><stop offset=".42" stop-color="#adeaff"/><stop offset=".64" stop-color="#70dbff"/><stop offset=".89" stop-color="#23c7ff"/><stop offset="1" stop-color="#00beff"/></linearGradient><linearGradient id="q" x1="65.35" y1="56.72" x2="65.51" y2="10.35" gradientUnits="userSpaceOnUse"><stop offset=".14" stop-color="#00ebff"/><stop offset=".22" stop-color="#00e9ff" stop-opacity=".96"/><stop offset=".34" stop-color="#00e4ff" stop-opacity=".85"/><stop offset=".5" stop-color="#0df" stop-opacity=".68"/><stop offset=".69" stop-color="#00d2ff" stop-opacity=".44"/><stop offset=".91" stop-color="#00c4ff" stop-opacity=".14"/><stop offset="1" stop-color="#00beff" stop-opacity="0"/></linearGradient></defs><path d="M121.3 93.5c2.2 1.3 2.3 3.4 0 4.7l-52.7 30.6a8.7 8.7 0 01-8 0L7.5 98.2c-2.2-1.3-2.3-3.4 0-4.7l52.7-30.6a8.7 8.7 0 018 0z" fill="url(#e)"/><path d="M98.9 95.1l-31.1 18.1a5.5 5.5 0 01-4.7 0L31.8 95.1c-.9-.5-1.2-1.2-.9-1.8s.4.5.8.8l31.3 18 .5.3h3.8l.5-.3 31-18h.9a1.4 1.4 0 01-.8 1z" opacity=".41" fill="url(#a)"/><path d="M99.7 93.2h-.9l-31 18-.5.3h-3.8l-.5-.3-31.3-18c-.4-.3-.7-.5-.8-.8a1.3 1.3 0 01.9-.9L42.6 86l20.2-11.7a5.1 5.1 0 014.8 0L88 86.1l10.8 6.3a1.8 1.8 0 01.9.8z" opacity=".5" fill="url(#b)"/><path d="M99.8 78.4v14.3h-1l-31 18-.5.3h-1.5V98.4h1.5l.5-.3 20.2-12 10.9-6.3h.9z" opacity=".1" fill="url(#c)"/><path d="M65.8 98.4v14.3h-2.3l-.5-.3-31.3-18c-.4-.3-.7-.5-.8-.8a1.4 1.4 0 01-.2-.6V78.4a1.7 1.7 0 001 1.4L42.6 86l20.5 11.8.5.3h2.2z" opacity=".65" fill="url(#d)"/><path d="M98.9 80L67.8 98.1a5.5 5.5 0 01-4.7 0L31.8 80c-.9-.5-1.2-1.2-.9-1.8a1.5 1.5 0 00.8.8L63 97.1l.5.2h3.8l.5-.2 31-18.1h.3c0-.1 0-.1.1-.1h.4c.1 0 .1 0 .1-.1a1.4 1.4 0 01-.8 1.2z" opacity=".47" fill="url(#f)"/><path d="M99.7 78.1c0 .1 0 .1-.1.1h-.4c-.1 0-.1 0-.1.1h-.3l-31 18.1-.5.2h-3.8l-.5-.2L31.7 79a1.5 1.5 0 01-.8-.8 1.9 1.9 0 01.9-.9L42.6 71l20.2-11.8a5.7 5.7 0 014.8 0L88 71l10.8 6.3a1.8 1.8 0 01.9.8z" opacity=".58" fill="url(#g)"/><path d="M99.8 63.4v14.3h-.1c0 .1 0 .1-.1.1h-.4c-.1 0-.1 0-.1.1h-.3L67.8 96l-.5.2h-1.5V83.3h1.5l.5-.2L88 71l10.9-6.3h.6a.1.1 0 01.1-.1.1.1 0 00.1-.1h.1z" opacity=".65" fill="url(#h)"/><path d="M98.8 62c1.4.7 1.4 2 .1 2.7L67.8 82.8a5.5 5.5 0 01-4.7 0L31.8 64.7a1.4 1.4 0 010-2.7l31-18.1a5.7 5.7 0 014.8 0z" fill="url(#i)"/><path d="M65.8 83.3v14.3h-2.3l-.5-.2L31.7 79a1.5 1.5 0 01-.8-.8 1.4 1.4 0 01-.2-.6V63.3a1.7 1.7 0 001 1.4L42.6 71l20.5 11.8.5.2.5.2h1.7z" opacity=".65" fill="url(#j)"/><path d="M98.9 65.3l-31.1 18a4.9 4.9 0 01-4.7 0l-31.3-18c-.9-.5-1.2-1.2-.9-1.9a1.5 1.5 0 00.8.8L63 82.3l.5.2h3.8l.5-.2 31-18.1h.5l.2-.2c0-.1.1-.1.1-.2h.1c.3.2.1.9-.8 1.5z" opacity=".38" fill="url(#k)"/><path d="M99.7 63.3h-.1c0 .1-.1.1-.1.2l-.2.2h-.5l-31 18.1-.5.2h-3.8l-.5-.2-31.3-17.6a1.5 1.5 0 01-.8-.8 1.9 1.9 0 01.9-.9l10.8-6.3 20.2-11.7a5.1 5.1 0 014.8 0L88 56.3l10.8 6.2a2.4 2.4 0 01.9.8z" fill="url(#l)"/><path d="M99.8 48.6v14.3h-.2c0 .1-.1.1-.1.2l-.2.2h-.5l-31 18.1-.5.2h-1.5v-13h1.5l.5-.2L88 56.3l10.9-6.4h.1a.1.1 0 01.1-.1h.1a.1.1 0 00.1-.1h.1c0-.1.1-.1.1-.2h.1v-.2h.1a.1.1 0 01.1-.1z" opacity=".65" fill="url(#m)"/><path d="M98.8 47.2c1.4.8 1.4 2 .1 2.7L67.8 68a4.9 4.9 0 01-4.7 0L31.8 49.9c-1.3-.7-1.3-1.9 0-2.7l31-18.1a5.7 5.7 0 014.8 0z" fill="url(#n)" opacity=".93"/><path d="M65.8 68.6v14.3h-2.3l-.5-.2-31.3-18.5a1.5 1.5 0 01-.8-.8c-.1-.2-.2-.3-.2-.5V48.6a1.4 1.4 0 001 1.3l10.8 6.3L63.1 68l.5.2h2.2z" opacity=".65" fill="url(#o)"/><path d="M79.5 46.3c.6.3.6.8 0 1.1l-13 7.6a2.3 2.3 0 01-2 0l-13.1-7.6c-.6-.3-.6-.8 0-1.1l13-7.6a2.3 2.3 0 012 0z" fill="url(#p)"/><path d="M79.9 46.6V-.2H51v47a.7.7 0 00.4.5l13.1 7.6a2.3 2.3 0 002 0l13-7.6c.4-.2.5-.5.4-.7z" opacity=".39" fill="url(#q)"/></svg>