<svg xmlns="http://www.w3.org/2000/svg" viewBox="0 0 130 130" width="120" height="120"><defs><linearGradient id="a" x1="69.12" y1="15.99" x2="37.64" y2="93.62" gradientUnits="userSpaceOnUse"><stop offset=".01" stop-color="#00ebff"/><stop offset=".5" stop-color="#028dff"/><stop offset="1" stop-color="#0526ff"/></linearGradient><linearGradient id="b" x1="81.5" y1="22.98" x2="50.03" y2="100.61" gradientUnits="userSpaceOnUse"><stop offset=".01" stop-color="#00ebff"/><stop offset=".68" stop-color="#008eff"/><stop offset="1" stop-color="#005fff"/></linearGradient><linearGradient id="c" x1="46.94" y1="122.89" x2="49.94" y2="67.83" gradientUnits="userSpaceOnUse"><stop offset=".01" stop-color="#3d51e9"/><stop offset="1" stop-color="#005fff"/></linearGradient><linearGradient id="d" x1="92.13" y1="38.74" x2="76.41" y2="77.5" gradientUnits="userSpaceOnUse"><stop offset=".01" stop-color="#76b2ff"/><stop offset=".8" stop-color="#1970ff"/><stop offset="1" stop-color="#005fff"/></linearGradient><linearGradient id="e" x1="93.11" y1="71.73" x2="77.26" y2="110.84" gradientUnits="userSpaceOnUse"><stop offset=".01" stop-color="#767bff"/><stop offset=".8" stop-color="#1965ff"/><stop offset="1" stop-color="#005fff"/></linearGradient></defs><path d="M83.7 79.7l-63.2 36.4a2.3 2.3 0 01-3.4-2V42.2a6.2 6.2 0 013.2-5.5L83.5.3a2.3 2.3 0 013.4 2v72a6.2 6.2 0 01-3.2 5.4z" opacity=".53" fill="url(#a)"/><path d="M96.1 86.7l-63.2 36.4a2.3 2.3 0 01-3.4-2V49.2a6.3 6.3 0 013.1-5.5L95.9 7.3a2.3 2.3 0 013.4 2v72a6.2 6.2 0 01-3.2 5.4z" opacity=".43" fill="url(#b)"/><path fill="url(#c)" d="M42.6 69.7l11.6-6.5-.1 60-11.6 6.7.1-60.2z"/><path fill="url(#d)" d="M60.6 60l.2 26.3 45.7-26.5-.2-26.5L60.6 60z"/><path fill="#fff" opacity=".17" d="M71.1 67.5l.2 52.5L117 93.4l-.2-52.6-45.7 26.7z"/><path fill="url(#e)" d="M61.3 93.3l.5 26.6 45.7-26.7.2-26.9-46.4 27z"/><path d="M103.8 88.3c.8-.4 1.4-.1 1.4.8a3.1 3.1 0 01-1.3 2.4l-4.7 2.7c-.7.4-1.3.1-1.3-.8a3.1 3.1 0 011.3-2.4zM101.8 55.1c.8-.4 1.4-.1 1.4.8a3.1 3.1 0 01-1.3 2.4L97.2 61c-.7.4-1.3 0-1.3-.8a3.1 3.1 0 011.3-2.4z" fill="#fff"/></svg>