<svg xmlns="http://www.w3.org/2000/svg" xmlns:xlink="http://www.w3.org/1999/xlink" viewBox="0 0 130 130" width="120" height="120"><defs><linearGradient id="b" x1="93.01" y1="117.94" x2="110.59" y2="117.94" gradientUnits="userSpaceOnUse"><stop offset=".01" stop-color="#00ebff"/><stop offset=".68" stop-color="#008eff"/><stop offset="1" stop-color="#005fff"/></linearGradient><linearGradient id="a" x1="64.15" y1="58.61" x2="129.76" y2="58.61" gradientUnits="userSpaceOnUse"><stop offset="0" stop-color="#7e73ff"/><stop offset=".15" stop-color="#7470fd"/><stop offset=".39" stop-color="#5966f7"/><stop offset=".71" stop-color="#2d57ed"/><stop offset="1" stop-color="#0048e3"/></linearGradient><linearGradient id="c" x1="41.66" y1="64.36" x2="98.94" y2="64.36" xlink:href="#a"/><linearGradient id="d" x1="44.34" y1="63.87" x2="96.26" y2="63.87" xlink:href="#a"/><linearGradient id="e" x1="41.66" y1="42.03" x2="100.88" y2="42.03" xlink:href="#b"/><linearGradient id="f" x1="0" y1="98.33" x2="98.94" y2="98.33" xlink:href="#b"/><linearGradient id="g" x1="56.83" y1="93.95" x2="100.88" y2="93.95" xlink:href="#a"/><linearGradient id="h" x1="0" y1="111.95" x2="57.01" y2="111.95" xlink:href="#b"/><linearGradient id="i" x1="13.94" y1="96.31" x2="89.98" y2="96.31" xlink:href="#a"/><linearGradient id="j" x1="70.99" y1="50.26" x2="44.21" y2="82.68" gradientUnits="userSpaceOnUse"><stop offset="0" stop-color="#6cffff"/><stop offset=".09" stop-color="#72ffff" stop-opacity=".96"/><stop offset=".23" stop-color="#82ffff" stop-opacity=".85"/><stop offset=".42" stop-color="#9bffff" stop-opacity=".68"/><stop offset=".64" stop-color="#beffff" stop-opacity=".44"/><stop offset=".89" stop-color="#ebffff" stop-opacity=".14"/><stop offset="1" stop-color="#fff" stop-opacity="0"/></linearGradient><linearGradient id="k" x1="91.6" y1="117.49" x2="110.59" y2="117.49" xlink:href="#a"/><linearGradient id="l" x1="105.67" y1="113.79" x2="110.59" y2="113.79" xlink:href="#a"/></defs><g data-name="图层 1"><path opacity=".43" fill="url(#b)" d="M105.7 112.1L93 121.3l6.2 2.4 11.4-8.3-4.9-3.3z"/><path fill="url(#a)" d="M129.8 51.2l-.2 52.6L64.2 66l.1-52.6 65.5 37.8z"/><path fill="#f2f2f2" d="M87.6 57.4v.7l-14.8-8.6v-.7l14.8 8.6zM80.3 49v.7l-7.5-4.3v-.8l7.5 4.4zM88.5 45.2v.8l-15.7-9.1v-.7l15.7 9zM93.1 43.9v.8L72.9 33v-.8l20.2 11.7zM89.7 36.5v.8l-16.8-9.7v-.8l16.8 9.7zM99.8 51.8v.7L90 46.8v-.7l9.8 5.7zM82.7 58.4v.8l-9.9-5.7v-.8l9.9 5.7zM98.8 59.6v.8L81.1 50.2v-.8l17.7 10.2zM105 50.8v.7l-9.9-5.7v-.7l9.9 5.7zM100.9 43v.8L91 38.1v-.8l9.9 5.7zM122.2 60.7v.8l-15.7-9.1v-.8l15.7 9.1zM106.7 68.4v.8l-5.2-3.1v-.7l5.2 3zM122.1 64.6v.8l-20.2-11.7V53l20.2 11.6zM99.7 64.3v.8l-9.9-5.7v-.8l9.9 5.7zM89.7 62.5v.7l-5.2-3v-.7l5.2 3zM78.2 64.3v.7L73 62v-.7l5.2 3zM107.8 81.6v.8l-9.9-5.7v-.8l9.9 5.7zM95.7 74.6v.8l-14.8-8.6V66l14.8 8.6z"/><path opacity=".81" fill="url(#c)" d="M41.7 26l57.2 33v43.7l-57.2-33V26z"/><path opacity=".26" fill="url(#d)" d="M44.3 29.5l52 29.9v38.8l-52-29.9V29.5z"/><path opacity=".43" fill="url(#e)" d="M41.7 26l1.9-1 57.3 33-2 1-57.2-33z"/><path opacity=".43" fill="url(#f)" d="M41.7 69.7L0 94l57 33 41.9-24.3-57.2-33z"/><path fill="url(#g)" d="M98.9 59v43.6L57 127l-.2 2.9 44.1-26V58l-2 1z"/><path fill="url(#h)" d="M0 94v2.6l56.8 33.3.2-2.9L0 94z"/><path opacity=".56" fill="url(#i)" d="M41.6 74.4L13.9 90.3l48.5 28 27.6-16-48.4-27.9z"/><path fill="#f2f2f2" opacity=".74" d="M44.3 29.5v18l52 29.8V59.4l-52-29.9z"/><ellipse cx="56.2" cy="53.4" rx="2.8" ry="4.8" transform="rotate(-30.2 56.184 53.33)" fill="#f2f2f2" opacity=".82"/><path style="mix-blend-mode:overlay" opacity=".39" fill="url(#j)" d="M44.3 29.5L2.9 54.2 0 88.5l56.2 33.9 40.1-24.2V59.4l-52-29.9z"/><path fill="url(#k)" d="M105.7 112.1l-14.1 7.4 6.1 3.3 12.9-7.4-.1-2.6-4.8-.7z"/><path fill="url(#l)" d="M105.7 112.1l4.9 3.3-.1-2.6-4.8-.7z"/><ellipse cx="108.9" cy="113.3" rx=".4" ry=".2" fill="#fff"/></g></svg>