<svg xmlns="http://www.w3.org/2000/svg" width="621" height="614" viewBox="0 0 621 614"><defs><style>.cls-1{fill:#f7ecf0;}.cls-2{fill:#305ca2;}.cls-3{fill:#f9d2de;}</style></defs><title>资源 1</title><g id="图层_2" data-name="图层 2"><g id="图层_2-2" data-name="图层 2"><path class="cls-1" d="M0,134c132.55,0,240,107.45,240,240S132.55,614,0,614Z"/><path class="cls-2" d="M0,267.89A111.59,111.59,0,0,1,111.58,379.47,111.58,111.58,0,0,1,0,491.05Z"/><path class="cls-3" d="M368,0H621a0,0,0,0,1,0,0V110a0,0,0,0,1,0,0H468.29A100.29,100.29,0,0,1,368,9.71V0A0,0,0,0,1,368,0Z"/></g></g></svg>