<svg xmlns="http://www.w3.org/2000/svg" width="334.13" height="516.57" viewBox="0 0 334.13 516.57"><defs><style>.cls-1{fill:#b9def0;}.cls-2{fill:#36b7a8;}.cls-3{fill:none;stroke:#040000;stroke-miterlimit:10;}.cls-4{fill:#305ca2;}</style></defs><title>资源 2</title><g id="图层_2" data-name="图层 2"><g id="图层_2-2" data-name="图层 2"><polygon class="cls-1" points="334.13 106.83 185.25 255.72 78.41 255.72 78.41 0 334.13 0 334.13 106.83"/><circle class="cls-2" cx="29" cy="463.52" r="29"/><circle class="cls-3" cx="53.34" cy="489.07" r="27"/><circle class="cls-4" cx="122.59" cy="136.35" r="2.86"/><circle class="cls-4" cx="156.77" cy="136.35" r="2.86"/><circle class="cls-4" cx="189.96" cy="135.95" r="2.86"/><circle class="cls-4" cx="225.15" cy="136.35" r="2.86"/><circle class="cls-4" cx="259.33" cy="136.35" r="2.86"/><circle class="cls-4" cx="293.52" cy="136.35" r="2.86"/><circle class="cls-4" cx="122.59" cy="170.53" r="2.86"/><circle class="cls-4" cx="156.77" cy="170.53" r="2.86"/><circle class="cls-4" cx="190.96" cy="170.53" r="2.86"/><circle class="cls-4" cx="225.15" cy="170.53" r="2.86"/><circle class="cls-4" cx="259.33" cy="170.53" r="2.86"/><circle class="cls-4" cx="293.52" cy="170.53" r="2.86"/><circle class="cls-4" cx="122.59" cy="204.72" r="2.86"/><circle class="cls-4" cx="156.77" cy="204.72" r="2.86"/><circle class="cls-4" cx="190.96" cy="204.72" r="2.86"/><circle class="cls-4" cx="225.15" cy="204.72" r="2.86"/><circle class="cls-4" cx="259.33" cy="204.72" r="2.86"/><circle class="cls-4" cx="293.52" cy="204.72" r="2.86"/><circle class="cls-4" cx="122.59" cy="238.91" r="2.86"/><circle class="cls-4" cx="156.77" cy="238.91" r="2.86"/><circle class="cls-4" cx="190.96" cy="238.91" r="2.86"/><circle class="cls-4" cx="225.15" cy="238.91" r="2.86"/><circle class="cls-4" cx="259.33" cy="238.91" r="2.86"/><circle class="cls-4" cx="293.52" cy="238.91" r="2.86"/><circle class="cls-4" cx="122.59" cy="273.09" r="2.86"/><circle class="cls-4" cx="156.77" cy="273.09" r="2.86"/><circle class="cls-4" cx="190.96" cy="273.09" r="2.86"/><circle class="cls-4" cx="225.15" cy="273.09" r="2.86"/><circle class="cls-4" cx="259.33" cy="273.09" r="2.86"/><circle class="cls-4" cx="293.52" cy="273.09" r="2.86"/><circle class="cls-4" cx="122.59" cy="307.28" r="2.86"/><circle class="cls-4" cx="156.77" cy="307.28" r="2.86"/><circle class="cls-4" cx="190.96" cy="307.28" r="2.86"/><circle class="cls-4" cx="225.15" cy="307.28" r="2.86"/><circle class="cls-4" cx="259.33" cy="307.28" r="2.86"/><circle class="cls-4" cx="293.52" cy="307.28" r="2.86"/><circle class="cls-4" cx="122.59" cy="341.47" r="2.86"/><circle class="cls-4" cx="156.77" cy="341.47" r="2.86"/><circle class="cls-4" cx="190.96" cy="341.47" r="2.86"/><circle class="cls-4" cx="225.15" cy="341.47" r="2.86"/><circle class="cls-4" cx="259.33" cy="341.47" r="2.86"/><circle class="cls-4" cx="293.52" cy="341.47" r="2.86"/></g></g></svg>