<svg xmlns="http://www.w3.org/2000/svg" width="20" height="20" viewBox="0 0 24 24" fill="currentColor"><path fill="none" d="M0 0h24v24H0z"></path><path d="M17.54 12.51l-.7-1.8v-.55C16.85 7.09 15.45 4 12 4c-3.45 0-4.85 3.09-4.85 6.16l.01.56-.7 1.8c-.18.5-.37 1.04-.51 1.5-.66 2.2-.45 3.1-.28 3.12.34.04 1.35-1.65 1.35-1.65 0 .98.49 2.26 1.54 3.18-.4.13-.87.32-1.18.56-.28.21-.25.43-.2.52.22.38 3.8.24 4.82.12 1.03.12 4.6.26 4.82-.12.05-.1.09-.3-.2-.52-.3-.24-.79-.43-1.18-.56a4.43 4.43 0 0 0 1.54-3.18s1 1.7 1.35 1.65c.17-.02.38-.93-.28-3.12-.14-.46-.32-1-.51-1.5zm1.02 8.23c-.38.65-.84.9-1.44 1.06-.24.06-.5.1-.8.14-.44.04-.98.06-1.6.06a33.23 33.23 0 0 1-2.72-.12c-.7.07-1.78.12-2.7.12a16.07 16.07 0 0 1-1.62-.06 4.93 4.93 0 0 1-.8-.14 2.1 2.1 0 0 1-1.44-1.06 2.27 2.27 0 0 1-.23-1.65c-.6-.14-1-.49-1.28-.91a2.43 2.43 0 0 1-.31-.71 4.03 4.03 0 0 1-.12-1.11c.01-.79.19-1.76.53-2.91.14-.47.33-1.01.57-1.66l.55-1.43a15.5 15.5 0 0 1 0-.2C5.15 5.61 7.6 2 12 2s6.85 3.6 6.85 8.16v.2l.55 1.43.01.03c.23.6.41 1.15.56 1.62.34 1.15.52 2.13.53 2.92 0 .4-.03.78-.12 1.1a2.4 2.4 0 0 1-.3.72c-.28.42-.7.77-1.28.9.13.56.05 1.15-.24 1.66z"></path></svg>