<svg xmlns="http://www.w3.org/2000/svg" width="100" viewBox="0 0 160 20.61"><defs><style>.cls-1{fill:#ff1c37;}</style></defs><title>资源 1</title><g id="图层_2" data-name="图层 2"><g id="图层_1-2" data-name="图层 1"><path d="M0,20.61V0H17.17a3.32,3.32,0,0,1,2.44,1,3.37,3.37,0,0,1,1,2.42v6a3.36,3.36,0,0,1-1,2.42,3.29,3.29,0,0,1-2.44,1H2.32v7.67Zm3.43-10H17.17a1.09,1.09,0,0,0,.79-.31,1,1,0,0,0,.33-.78v-6a1.13,1.13,0,0,0-1.12-1.11H3.43a1.07,1.07,0,0,0-.78.33,1.07,1.07,0,0,0-.33.78v6a1,1,0,0,0,.33.78A1.09,1.09,0,0,0,3.43,10.59Z"/><path d="M23,20.61V3.43A3.32,3.32,0,0,1,24,1a3.27,3.27,0,0,1,2.43-1H40.16a3.31,3.31,0,0,1,2.43,1,3.31,3.31,0,0,1,1,2.43V20.61H41.27V13.08h-16v7.53Zm2.32-9.85h16V3.43a1.07,1.07,0,0,0-.33-.78,1.07,1.07,0,0,0-.78-.33H26.42A1.13,1.13,0,0,0,25.3,3.43Z"/><path d="M50.29,20.61a3.41,3.41,0,0,1-3.43-3.44V3.43a3.31,3.31,0,0,1,1-2.43,3.29,3.29,0,0,1,2.43-1H64a3.31,3.31,0,0,1,2.43,1,3.31,3.31,0,0,1,1,2.43v.83H65.15V3.43a1.07,1.07,0,0,0-.33-.78A1.09,1.09,0,0,0,64,2.32H50.29a1.13,1.13,0,0,0-1.12,1.11V17.17a1.13,1.13,0,0,0,1.12,1.12H64a1.09,1.09,0,0,0,.79-.33,1.07,1.07,0,0,0,.33-.79V12.08h-5.1V9.73h7.41v7.44A3.41,3.41,0,0,1,64,20.61Z"/><path d="M70.67,20.61V0h18.8V2.32H73V9.13H86.24v2.35H73v6.81H89.47v2.32Z"/><path class="cls-1" d="M92.54,20.61V0h17.17a3.3,3.3,0,0,1,2.43,1,3.34,3.34,0,0,1,1,2.42v6a3.33,3.33,0,0,1-1,2.42,3.27,3.27,0,0,1-2.43,1H94.85v7.67Zm3.43-10h13.74a1.09,1.09,0,0,0,.79-.31,1,1,0,0,0,.33-.78v-6a1.13,1.13,0,0,0-1.12-1.11H96a1.09,1.09,0,0,0-.79.33,1.07,1.07,0,0,0-.33.78v6a1,1,0,0,0,.33.78A1.11,1.11,0,0,0,96,10.59Z"/><path class="cls-1" d="M115.52,20.61V3.43a3.31,3.31,0,0,1,1-2.43A3.31,3.31,0,0,1,119,0h13.74a3.31,3.31,0,0,1,2.44,1,3.34,3.34,0,0,1,1,2.43V20.61h-2.32V13.08h-16v7.53Zm2.32-9.85h16V3.43a1.13,1.13,0,0,0-1.12-1.11H119a1.07,1.07,0,0,0-.78.33,1.07,1.07,0,0,0-.33.78Z"/><path class="cls-1" d="M139.39,20.61V0h3.18l15.11,18V0H160V20.61h-3.18l-15.11-18v18Z"/></g></g></svg>