<svg xmlns="http://www.w3.org/2000/svg" viewBox="0 0 426.94 426.38"><defs><style>.cls-1{fill:#3661ad;}.cls-2{fill:#f3aecc;}.cls-3{fill:#f7ecf0;}.cls-4{fill:#36b7a8;}.cls-5{fill:#b0dbf3;}.cls-6{fill:#76ccf3;}.cls-7{fill:#ec7073;}.cls-8{fill:none;stroke:#231815;stroke-miterlimit:10;}</style></defs><title>1</title><g id="图层_3" data-name="图层 3"><rect class="cls-1" x="371.07" y="190.59" width="19.75" height="123.66"/><polygon class="cls-2" points="361.41 103.5 113.63 103.55 113.83 23.66 361.41 103.5"/><rect class="cls-3" x="27.57" y="349.31" width="54.87" height="48.99"/><rect class="cls-3" x="151.79" y="389.1" width="212.08" height="30.27"/><rect class="cls-4" x="190.44" y="397.97" width="160.79" height="9.48"/><rect class="cls-5" x="204.17" y="277.82" width="158.98" height="110.06"/><path class="cls-2" d="M92.49,307.91v2.37a6.43,6.43,0,0,1-6.43,6.42h0a6.43,6.43,0,0,1-6.42-6.42V275.07h92.83s.51,32.35.51,32.84v2.37a6.42,6.42,0,0,1-6.42,6.42h0a6.43,6.43,0,0,1-6.43-6.42v-2.37"/><path class="cls-2" d="M105.91,307.91v2.37a6.43,6.43,0,0,1-6.43,6.42h0a6.43,6.43,0,0,1-6.43-6.42v-2.37"/><path class="cls-2" d="M119.32,307.91v2.37a6.43,6.43,0,0,1-6.42,6.42h0a6.43,6.43,0,0,1-6.43-6.42v-2.37"/><path class="cls-2" d="M132.74,307.91v2.37a6.43,6.43,0,0,1-6.43,6.42h0a6.42,6.42,0,0,1-6.42-6.42v-2.37"/><path class="cls-2" d="M146.15,307.91v2.37a6.42,6.42,0,0,1-6.42,6.42h0a6.43,6.43,0,0,1-6.43-6.42v-2.37"/><path class="cls-2" d="M159.57,307.91v2.37a6.43,6.43,0,0,1-6.43,6.42h0a6.42,6.42,0,0,1-6.42-6.42v-2.37"/><rect class="cls-6" x="97.94" y="113.96" width="265.94" height="84.99"/><rect class="cls-7" x="90.68" y="210.56" width="272.08" height="52.58"/><path class="cls-4" d="M81.56,104.48H97.42A49.49,49.49,0,0,0,24,170.61a20.76,20.76,0,0,1,0,26.11,49.5,49.5,0,0,0,0,61.93,20.62,20.62,0,0,1,.14,26,49.31,49.31,0,0,0,2.26,64.75H82.17V104.48"/><path class="cls-8" d="M26.18,349.35a49.3,49.3,0,0,1-2.27-64.75,20.61,20.61,0,0,0-.13-26,49.5,49.5,0,0,1,0-61.93,20.76,20.76,0,0,0,0-26.11A49.48,49.48,0,0,1,97.2,104.49"/><polyline class="cls-8" points="82.95 399.5 59.76 399.5 35.88 399.5 20.85 399.5 20.85 353.95 20.85 349.36 82.69 349.36"/><rect class="cls-1" x="80.07" y="275.58" width="45.25" height="10.8"/><line class="cls-8" x1="385.82" y1="106.95" x2="58.88" y2="0.72"/><line class="cls-8" x1="112.86" y1="103.56" x2="112.86" y2="18.27"/><line class="cls-8" x1="58.92" y1="104.48" x2="375.44" y2="104.48"/><line class="cls-8" x1="82.96" y1="104.48" x2="82.96" y2="205.47"/><line class="cls-8" x1="371.1" y1="104.89" x2="371.1" y2="205.37"/><line class="cls-8" x1="57.83" y1="205.37" x2="371.34" y2="205.37"/><polyline class="cls-8" points="371.1 205.37 371.1 270.48 82.76 270.48 82.76 205.47"/><polyline class="cls-8" points="82.76 286.23 82.76 316.85 82.76 387.88 371.1 387.88 371.1 270.48"/><line class="cls-8" x1="121.33" y1="276.14" x2="121.33" y2="270.48"/><line class="cls-8" x1="83.05" y1="388.79" x2="83.05" y2="426.14"/><line class="cls-8" x1="151.38" y1="388.79" x2="151.38" y2="426.14"/><line class="cls-8" x1="82.95" y1="396.85" x2="151.07" y2="396.85"/><line class="cls-8" x1="82.95" y1="406.32" x2="151.07" y2="406.32"/><line class="cls-8" x1="82.95" y1="415.8" x2="151.07" y2="415.8"/><line class="cls-8" x1="172.47" y1="270.48" x2="172.47" y2="386.96"/><polyline class="cls-8" points="230.18 351.19 395.13 351.19 426.38 351.19 426.38 426.15"/><polyline class="cls-8" points="371.04 387.67 395.28 387.67 395.28 371.37 371.1 371.37"/><line class="cls-8" x1="254.27" y1="351.19" x2="254.27" y2="388.29"/><line class="cls-8" x1="294.74" y1="351.19" x2="294.74" y2="388.29"/><line class="cls-8" x1="335.21" y1="351.19" x2="335.21" y2="388.29"/><polyline class="cls-8" points="152.05 419.67 370.77 419.67 370.77 387.88"/><rect class="cls-8" x="190.68" y="398.07" width="160.43" height="9.78"/><line class="cls-8" x1="87.64" y1="270.64" x2="87.64" y2="275.99"/><line class="cls-8" x1="104.76" y1="270.64" x2="104.76" y2="275.99"/><rect class="cls-8" x="79.43" y="276.14" width="45.39" height="10.08"/><line class="cls-8" x1="167.71" y1="105.4" x2="167.71" y2="205.37"/><line class="cls-8" x1="269.33" y1="105.4" x2="269.33" y2="205.37"/><rect class="cls-8" x="90.58" y="210.56" width="272.2" height="53.4"/><line class="cls-8" x1="93.19" y1="353.94" x2="0.05" y2="353.94"/><line class="cls-8" x1="11.97" y1="354.45" x2="11.97" y2="426.4"/><line class="cls-8" x1="35.87" y1="354.45" x2="35.87" y2="426.4"/><line class="cls-8" x1="59.77" y1="354.45" x2="59.77" y2="426.4"/><line class="cls-8" x1="395.28" y1="387.67" x2="395.28" y2="426.23"/><line class="cls-8" x1="201.82" y1="166.69" x2="244.82" y2="130.31"/><line class="cls-8" x1="323.22" y1="175.86" x2="344.54" y2="157.83"/><line class="cls-8" x1="254.03" y1="326.12" x2="298.84" y2="288.21"/><line class="cls-8" x1="322.68" y1="294.33" x2="303.89" y2="310.23"/><polyline class="cls-8" points="370.95 189.78 398.35 189.78 398.35 314.51 371.25 314.51"/><path class="cls-8" d="M95.19,302.1v2.28A6.18,6.18,0,0,1,89,310.56h0a6.19,6.19,0,0,1-6.19-6.18V302.1"/><path class="cls-8" d="M108.11,302.1v2.28a6.19,6.19,0,0,1-6.19,6.18h0a6.19,6.19,0,0,1-6.19-6.18V302.1"/><path class="cls-8" d="M121,302.1v2.28a6.19,6.19,0,0,1-6.19,6.18h0a6.18,6.18,0,0,1-6.18-6.18V302.1"/><path class="cls-8" d="M133.93,302.1v2.28a6.18,6.18,0,0,1-6.18,6.18h0a6.19,6.19,0,0,1-6.19-6.18V302.1"/><path class="cls-8" d="M146.85,302.1v2.28a6.19,6.19,0,0,1-6.19,6.18h0a6.18,6.18,0,0,1-6.18-6.18V302.1"/><path class="cls-8" d="M159.76,302.1v2.28a6.18,6.18,0,0,1-6.18,6.18h0a6.19,6.19,0,0,1-6.19-6.18V302.1"/><path class="cls-8" d="M172.68,302.1v2.28a6.19,6.19,0,0,1-6.19,6.18h0a6.18,6.18,0,0,1-6.18-6.18V302.1"/><line class="cls-8" x1="147.58" y1="29.6" x2="147.58" y2="104.2"/><polyline class="cls-8" points="180.93 104.2 180.93 103.54 180.93 45.3 180.93 40.38"/><polyline class="cls-8" points="214.27 104.2 214.27 103.53 214.27 56.05 214.27 51.21"/><polyline class="cls-8" points="247.62 104.2 247.62 103.52 247.62 66.81 247.62 62.04"/><polyline class="cls-8" points="280.96 104.2 280.96 103.52 280.96 77.56 280.96 72.87"/><polyline class="cls-8" points="314.31 104.2 314.31 103.51 314.31 88.31 314.31 83.71"/><polyline class="cls-8" points="347.66 104.2 347.66 103.5 347.66 99.07 347.66 94.55"/></g></svg>