<svg xmlns="http://www.w3.org/2000/svg" viewBox="0 0 426.94 426.38"><defs><style>.cls-1{fill:#b0dbf3;}.cls-2{fill:none;stroke:#231815;stroke-miterlimit:10;}.cls-3{fill:#ec7073;}</style></defs><title>1</title><g id="图层_3" data-name="图层 3"><path class="cls-1" d="M302.6,142.35H73.13V284.18a28.69,28.69,0,0,0,28.69,28.68h0a28.68,28.68,0,0,0,28.68-28.68,28.68,28.68,0,0,0,28.69,28.68h0a28.68,28.68,0,0,0,28.68-28.68,28.68,28.68,0,0,0,28.68,28.68h0a28.69,28.69,0,0,0,28.69-28.68,28.68,28.68,0,0,0,28.68,28.68h0a28.68,28.68,0,0,0,28.68-28.68,28.69,28.69,0,0,0,28.69,28.68h0A28.68,28.68,0,0,0,360,284.18V142.35Z"/><polyline class="cls-2" points="359.72 267.87 359.72 422.63 73.58 422.63 73.58 267.87"/><path class="cls-2" d="M187,259.88a28.69,28.69,0,0,1-28.68,28.69h0a28.69,28.69,0,0,1-28.69-28.69V118.06"/><path class="cls-2" d="M244.34,259.88a28.7,28.7,0,0,1-28.69,28.69h0A28.69,28.69,0,0,1,187,259.88V118.06"/><path class="cls-2" d="M301.7,259.88A28.69,28.69,0,0,1,273,288.57h0a28.69,28.69,0,0,1-28.68-28.69V118.06"/><path class="cls-2" d="M301.7,118.06V259.88a28.7,28.7,0,0,0,28.69,28.69h0a28.69,28.69,0,0,0,28.68-28.69V118.06H72.23V259.88a28.7,28.7,0,0,0,28.69,28.69h0a28.69,28.69,0,0,0,28.68-28.69"/><line class="cls-2" x1="187.41" y1="291.27" x2="187.41" y2="422.52"/><line class="cls-2" x1="73.75" y1="361.45" x2="187.26" y2="361.45"/><rect class="cls-3" x="314.58" y="330.26" width="62.09" height="77.08"/><rect class="cls-2" x="314.95" y="329.73" width="60.74" height="78.28"/><line class="cls-2" x1="318.49" y1="408.01" x2="318.49" y2="426.23"/><line class="cls-2" x1="375.78" y1="408.01" x2="375.78" y2="426.23"/><line class="cls-2" x1="73.58" y1="321.18" x2="186.51" y2="321.18"/></g></svg>