<svg xmlns="http://www.w3.org/2000/svg" viewBox="0 0 426.94 426.38"><defs><style>.cls-1{fill:#ec7073;}.cls-2{fill:#36b7a8;}.cls-3{fill:#f7ecf0;}.cls-4{fill:#b0dbf3;}.cls-5{fill:#76ccf3;}.cls-6{fill:#f3aecc;}.cls-7{fill:#fff;}.cls-8{fill:#3661ad;}.cls-9{fill:none;stroke:#231815;stroke-miterlimit:10;}</style></defs><title>1</title><g id="图层_3" data-name="图层 3"><rect class="cls-1" x="10.08" y="142.96" width="30.86" height="15.2"/><path class="cls-2" d="M364.21,348.37v-118a36.66,36.66,0,0,1,8.37-1A36.1,36.1,0,0,1,398.19,291a36.09,36.09,0,0,1-9.74,57.86Z"/><rect class="cls-3" x="48.88" y="104.54" width="314.42" height="298.84"/><rect class="cls-4" x="8.31" y="192.77" width="40.33" height="100.83"/><path class="cls-1" d="M231.82,174.67a17.64,17.64,0,0,1-17.64,17.64h0a17.64,17.64,0,0,1-17.64-17.64V154.09l176.41-.4v21a17.64,17.64,0,0,1-17.64,17.64h0a17.64,17.64,0,0,1-17.64-17.64"/><path class="cls-1" d="M267.1,174.67a17.64,17.64,0,0,1-17.64,17.64h0a17.64,17.64,0,0,1-17.64-17.64v-6.53"/><path class="cls-1" d="M302.39,174.67a17.64,17.64,0,0,1-17.64,17.64h0a17.64,17.64,0,0,1-17.64-17.64v-6.53"/><path class="cls-1" d="M337.67,174.67A17.64,17.64,0,0,1,320,192.31h0a17.64,17.64,0,0,1-17.64-17.64v-6.53"/><rect class="cls-5" x="146.04" y="200.79" width="59.58" height="115.5"/><rect class="cls-6" x="90.36" y="345.62" width="44" height="73.33"/><rect class="cls-7" x="206.55" y="200.79" width="138.42" height="115.5"/><rect class="cls-8" x="282.17" y="273.66" width="64.17" height="42.4"/><path class="cls-9" d="M364.21,230.64a36.1,36.1,0,0,1,34,60.56,36.09,36.09,0,0,1-9.74,57.86"/><polyline class="cls-9" points="364.21 183.74 364.21 316.44 47.96 316.44 47.96 104 364.21 104 364.21 145.18"/><path class="cls-9" d="M241.14,166.11a17.64,17.64,0,0,1-17.64,17.64h0a17.64,17.64,0,0,1-17.64-17.64V145.54l176.41-.4v21a17.64,17.64,0,0,1-17.64,17.64h0A17.64,17.64,0,0,1,347,166.11v-6.53"/><path class="cls-9" d="M276.42,166.11a17.63,17.63,0,0,1-17.64,17.64h0a17.64,17.64,0,0,1-17.64-17.64v-6.53"/><path class="cls-9" d="M311.71,166.11a17.64,17.64,0,0,1-17.64,17.64h0a17.63,17.63,0,0,1-17.64-17.64v-6.53"/><path class="cls-9" d="M347,166.11a17.64,17.64,0,0,1-17.64,17.64h0a17.64,17.64,0,0,1-17.64-17.64v-6.53"/><line class="cls-9" x1="363.87" y1="183.87" x2="345.5" y2="202.24"/><polyline class="cls-9" points="206.37 168.93 206.37 201.93 345.78 201.93"/><rect class="cls-9" x="206.39" y="201.86" width="139.72" height="114.69"/><rect class="cls-9" x="146.5" y="202.13" width="60.04" height="114.69"/><line class="cls-9" x1="240.92" y1="170.46" x2="240.92" y2="222.71"/><line class="cls-9" x1="276.59" y1="170.46" x2="276.59" y2="222.71"/><polyline class="cls-9" points="363.99 316.44 363.99 403.76 138.71 403.76"/><polyline class="cls-9" points="47.96 316.44 47.96 403.76 94.72 403.76"/><polygon class="cls-9" points="240.92 222.42 229.42 231.78 252.42 231.78 240.92 222.42"/><polygon class="cls-9" points="276.67 222.42 265.17 231.78 288.17 231.78 276.67 222.42"/><polyline class="cls-9" points="47.27 193.38 8.77 193.38 8.77 295.13 47.27 295.13"/><rect class="cls-9" x="154.29" y="208.66" width="43.69" height="99.31"/><polyline class="cls-9" points="47.5 199.8 16.34 199.8 16.34 287.34 47.04 287.34"/><polyline class="cls-9" points="346.34 274.5 282.4 274.5 282.4 316.44"/><rect class="cls-9" x="94.71" y="345.55" width="44" height="73.33"/><line class="cls-9" x1="94.71" y1="418.65" x2="94.71" y2="426.6"/><line class="cls-9" x1="138.71" y1="418.65" x2="138.71" y2="426.6"/><polyline class="cls-9" points="364.21 349.06 404.09 349.06 404.09 404.06 363.99 404.06"/><rect class="cls-9" x="33.52" y="90.25" width="347.88" height="13.06"/><line class="cls-9" x1="47.74" y1="147.93" x2="41.81" y2="147.93"/><line class="cls-9" x1="47.74" y1="155.03" x2="41.81" y2="155.03"/><rect class="cls-9" x="10.38" y="143.11" width="31.17" height="15.2"/></g></svg>